<svg xmlns="http://www.w3.org/2000/svg" viewBox="0 0 569.77 569.77"><defs><style>.cls-1{fill:#91cbd2;}.cls-2{fill:none;stroke:#fff;stroke-width:11px;}.cls-2,.cls-3{stroke-miterlimit:10;}.cls-3{fill:#005520;stroke:#0fa24a;stroke-width:3px;}.cls-4{fill:#4f1a42;}</style></defs><title>ttbiospherelogo</title><g id="Layer_2" data-name="Layer 2"><circle class="cls-1" cx="284.89" cy="284.89" r="284.89"/><circle class="cls-2" cx="284.89" cy="284.89" r="252.73"/></g><g id="Layer_1" data-name="Layer 1"><path class="cls-3" d="M104,255.48S87.09,207,128.84,186.65c0,0-12.41-76.72,95.9-62.05,0,0,37.37-53,93.72-5.64,0,0,69.9-10.67,64.81,58.41,0,0,48-21.18,54.72,16,0,0,39.48,16.93,20.3,62.06Z" transform="translate(-3.11 -6.23)"/><polygon class="cls-4" points="275.81 243 92.51 243 123.53 302.69 305.89 302.69 275.81 243"/><polygon class="cls-4" points="456.45 243 268.66 243 300.44 302.69 487.27 302.69 456.45 243"/><path class="cls-4" d="M314.79,307.13V483h60.93V307.13Z" transform="translate(-3.11 -6.23)"/><path class="cls-4" d="M210.29,307.13V483h60.93V307.13Z" transform="translate(-3.11 -6.23)"/></g></svg>